<svg width="26" height="26" viewBox="0 0 26 26" fill="none" xmlns="http://www.w3.org/2000/svg">
<path fill-rule="evenodd" clip-rule="evenodd" d="M12.4255 2.67544C12.5779 2.52307 12.7846 2.43748 13.0001 2.4375C14.8509 2.43771 16.6692 2.92424 18.2728 3.84836C19.8764 4.77248 21.209 6.10174 22.1372 7.703C23.0654 9.30425 23.5565 11.1213 23.5614 12.9721C23.5663 14.8229 23.0847 16.6425 22.165 18.2487C21.2453 19.8548 19.9198 21.1911 18.3211 22.1237C16.7224 23.0562 14.9067 23.5524 13.0559 23.5623C11.2051 23.5723 9.38418 23.0958 7.77551 22.1806C6.16685 21.2653 4.82692 19.9434 3.88994 18.3473C3.87467 18.3212 3.861 18.2947 3.84892 18.2678C3.63528 17.8813 3.76972 17.3933 4.15377 17.1714L12.1875 12.531V3.25C12.1875 3.0345 12.2731 2.82782 12.4255 2.67544ZM13.3929 13.7114C13.4016 13.7066 13.4101 13.7016 13.4186 13.6965L21.1127 9.25228C21.6507 10.417 21.933 11.687 21.9364 12.9764C21.9405 14.5425 21.5331 16.0821 20.7549 17.4412C19.9767 18.8002 18.855 19.9309 17.5023 20.72C16.1495 21.5091 14.6132 21.9289 13.0471 21.9374C11.4811 21.9458 9.94029 21.5426 8.57911 20.7682C7.43615 20.1179 6.45352 19.225 5.69845 18.1558L13.3929 13.7114ZM20.3 7.8451L13.8125 11.5924V4.09961C15.0949 4.21683 16.3402 4.61015 17.4614 5.2563C18.5868 5.90484 19.5545 6.7892 20.3 7.8451ZM10.2193 3.14536C10.4346 3.29767 10.5625 3.54493 10.5625 3.80859V11.1211C10.5625 11.4111 10.4079 11.6791 10.1569 11.8244L3.81938 15.4908C3.59123 15.6228 3.31322 15.6359 3.07365 15.526C2.83409 15.416 2.66273 15.1967 2.61401 14.9377C2.49375 14.2983 2.43465 13.649 2.43751 12.9984C2.43656 10.8145 3.11322 8.68408 4.3742 6.90097C5.6356 5.11728 7.4195 3.76906 9.47974 3.04236C9.72839 2.95466 10.0041 2.99306 10.2193 3.14536ZM8.93751 5.03917C7.6528 5.69364 6.54019 6.65251 5.70096 7.83923C4.63382 9.34824 4.06133 11.1513 4.06251 12.9995L4.0625 13.0037C4.06179 13.1582 4.06523 13.3127 4.07281 13.4668L8.93751 10.6525V5.03917Z" fill="#ABABC2"/>
</svg>
