<svg width="14" height="14" viewBox="0 0 14 14" fill="none" xmlns="http://www.w3.org/2000/svg">
<path fill-rule="evenodd" clip-rule="evenodd" d="M5.12652 1.1641C5.24668 1.12531 5.37774 1.14033 5.48601 1.20529L6.76488 1.97261C6.92163 1.9656 7.07862 1.96561 7.23538 1.97262L8.50892 1.2105C8.6163 1.14624 8.74606 1.13104 8.86538 1.16874C9.70113 1.43278 10.4695 1.87531 11.1173 2.46568C11.2102 2.55031 11.2622 2.67078 11.2601 2.7964L11.2351 4.28294C11.3214 4.41556 11.4007 4.55267 11.4724 4.69371L12.7688 5.41448C12.878 5.47517 12.956 5.57962 12.9832 5.70152C13.174 6.55578 13.176 7.44137 12.9891 8.29649C12.9623 8.41943 12.8838 8.52485 12.7737 8.58582L11.4723 9.3066C11.4005 9.44751 11.3213 9.58451 11.2351 9.71702L11.2601 11.2036C11.2622 11.3292 11.2102 11.4497 11.1173 11.5343C10.4709 12.1234 9.70575 12.5672 8.87345 12.8359C8.75329 12.8746 8.62223 12.8596 8.51396 12.7947L7.2351 12.0273C7.07834 12.0344 6.92135 12.0343 6.76459 12.0273L5.49105 12.7895C5.38367 12.8537 5.25392 12.8689 5.13459 12.8312C4.29884 12.5672 3.53046 12.1246 2.88264 11.5343C2.78977 11.4496 2.73777 11.3292 2.73989 11.2035L2.76495 9.72036C2.67909 9.58637 2.59994 9.4482 2.52776 9.30638L1.23114 8.58548C1.12198 8.52478 1.04396 8.42033 1.01675 8.29844C0.826017 7.44417 0.824004 6.55858 1.01085 5.70346C1.03771 5.58052 1.11621 5.4751 1.2263 5.41413L2.5277 4.69335C2.59945 4.55244 2.67863 4.41544 2.76492 4.28294L2.73989 2.7964C2.73778 2.67077 2.78978 2.55029 2.88265 2.46566C3.52911 1.87658 4.29422 1.43278 5.12652 1.1641ZM3.61818 2.98409L3.64211 4.40589C3.64366 4.49801 3.6161 4.58826 3.56334 4.66378C3.446 4.83179 3.34326 5.00954 3.25626 5.19508C3.21715 5.2785 3.1527 5.34744 3.07211 5.39207L1.82772 6.08127C1.71887 6.68897 1.72038 7.31133 1.83218 7.9185L3.07274 8.60823C3.15272 8.6527 3.21674 8.72113 3.2558 8.80389C3.34471 8.9923 3.44841 9.17336 3.56592 9.34537C3.61702 9.42017 3.64364 9.50898 3.64211 9.59955L3.61819 11.0158C4.09107 11.4153 4.63184 11.7267 5.21473 11.9351L6.4308 11.2074C6.50781 11.1613 6.59714 11.14 6.68667 11.1464C6.89528 11.1613 7.10469 11.1613 7.3133 11.1464C7.403 11.14 7.4925 11.1614 7.56961 11.2076L8.7896 11.9396C9.37058 11.7279 9.90962 11.4151 10.3818 11.0159L10.3579 9.59406C10.3563 9.50195 10.3839 9.4117 10.4366 9.33617C10.554 9.16817 10.6567 8.99042 10.7437 8.80487C10.7828 8.72146 10.8473 8.65252 10.9279 8.60788L12.1723 7.91868C12.2811 7.31098 12.2796 6.68862 12.1678 6.08145L10.9272 5.39173C10.8469 5.34708 10.7827 5.27828 10.7437 5.19508C10.6567 5.00954 10.554 4.83179 10.4366 4.66378C10.3839 4.58826 10.3563 4.49801 10.3579 4.40589L10.3818 2.98415C9.90891 2.58467 9.36814 2.27329 8.78525 2.06485L7.56917 2.79258C7.49216 2.83867 7.40283 2.85995 7.3133 2.85355C7.10469 2.83863 6.89528 2.83863 6.68667 2.85355C6.59697 2.85997 6.50747 2.83858 6.43036 2.79232L5.21037 2.06032C4.62939 2.27207 4.09036 2.58481 3.61818 2.98409ZM6.99999 4.81248C5.79186 4.81248 4.81249 5.79185 4.81249 6.99998C4.81249 8.2081 5.79186 9.18748 6.99999 9.18748C8.20811 9.18748 9.18749 8.2081 9.18749 6.99998C9.18749 5.79185 8.20811 4.81248 6.99999 4.81248ZM3.93749 6.99998C3.93749 5.3086 5.30861 3.93748 6.99999 3.93748C8.69136 3.93748 10.0625 5.3086 10.0625 6.99998C10.0625 8.69135 8.69136 10.0625 6.99999 10.0625C5.30861 10.0625 3.93749 8.69135 3.93749 6.99998Z" fill="#3030D3"/>
</svg>
