<svg width="26" height="26" viewBox="0 0 26 26" fill="none" xmlns="http://www.w3.org/2000/svg">
<path fill-rule="evenodd" clip-rule="evenodd" d="M21.5101 4.48993C20.567 4.35391 18.2456 4.30267 15.8698 6.67844L9.54825 13L13 16.4517L19.3216 10.1302C21.6973 7.7544 21.6461 5.43301 21.5101 4.48993ZM12.2517 18.0015L7.99849 13.7483L3.98529 12.9438C3.69702 12.8863 3.42898 12.7516 3.21115 12.5542C2.99312 12.3567 2.83281 12.1037 2.74731 11.8222C2.66182 11.5407 2.65435 11.2413 2.72571 10.9558C2.79706 10.6704 2.94456 10.4097 3.15248 10.2016L6.44153 6.92269C6.74119 6.61897 7.14836 6.44523 7.57513 6.43915L7.5867 6.43907H13.8111L14.7208 5.52939C17.5575 2.69268 20.4487 2.69431 21.7457 2.8821C22.0928 2.92962 22.4149 3.08945 22.6627 3.33727C22.9105 3.58509 23.0704 3.90718 23.1179 4.25431C23.3057 5.55132 23.3073 8.44252 20.4706 11.2792L19.5609 12.1889V18.4133L19.5608 18.4249C19.5548 18.8516 19.381 19.2588 19.0773 19.5585L15.7984 22.8475C15.5902 23.0554 15.3296 23.2029 15.0441 23.2743C14.7587 23.3456 14.4593 23.3382 14.1778 23.2527C13.8963 23.1672 13.6433 23.0069 13.4457 22.7888C13.2484 22.571 13.1138 22.3037 13.0564 22.0155L12.2517 18.0015ZM17.9359 13.8139L13.8822 17.8677L14.65 21.6978L17.9359 18.4017V13.8139ZM12.1861 8.06407H7.5982L7.59163 8.07077L4.30218 11.35L4.30345 11.3502L8.13233 12.1178L12.1861 8.06407ZM8.02167 16.184C8.1647 16.6093 7.93585 17.0701 7.51053 17.2131C6.13328 17.6762 5.40134 18.8324 5.00983 20.0081C4.85437 20.4749 4.76044 20.9244 4.70401 21.296C5.07562 21.2395 5.52506 21.1456 5.99191 20.9902C7.1676 20.5986 8.32375 19.8667 8.7869 18.4895C8.92993 18.0641 9.39067 17.8353 9.816 17.9783C10.2413 18.1214 10.4702 18.5821 10.3271 19.0074C9.63247 21.0731 7.9144 22.0627 6.50533 22.5319C5.79351 22.769 5.12712 22.886 4.64073 22.9443C4.39635 22.9736 4.19432 22.9885 4.05079 22.9961C3.97895 22.9998 3.92154 23.0018 3.88055 23.0028C3.86006 23.0033 3.84365 23.0036 3.83157 23.0037L3.81674 23.0039L3.81181 23.0039L3.80998 23.0039C3.80998 23.0039 3.80858 23.0039 3.80858 22.1914C2.99608 22.1914 2.99608 22.1908 2.99608 22.1908L2.99609 22.1882L2.99611 22.1833L2.99624 22.1684C2.99639 22.1563 2.99666 22.1399 2.99717 22.1194C2.99819 22.0785 3.00015 22.021 3.00393 21.9492C3.01148 21.8057 3.02635 21.6036 3.05566 21.3593C3.11401 20.8729 3.23103 20.2065 3.46807 19.4947C3.9373 18.0856 4.92685 16.3675 6.99257 15.6729C7.4179 15.5298 7.87864 15.7587 8.02167 16.184ZM3.80858 22.1914L2.99608 22.1908C2.99608 22.6395 3.35985 23.0039 3.80858 23.0039L3.80858 22.1914Z" fill="#ABABC2"/>
</svg>
