<svg width="26" height="26" viewBox="0 0 26 26" fill="none" xmlns="http://www.w3.org/2000/svg">
<path fill-rule="evenodd" clip-rule="evenodd" d="M8.12499 14.625C6.77879 14.625 5.68749 15.7163 5.68749 17.0625C5.68749 18.4087 6.77879 19.5 8.12499 19.5C9.47118 19.5 10.5625 18.4087 10.5625 17.0625C10.5625 15.7163 9.47118 14.625 8.12499 14.625ZM4.06249 17.0625C4.06249 14.8188 5.88133 13 8.12499 13C10.3686 13 12.1875 14.8188 12.1875 17.0625C12.1875 19.3062 10.3686 21.125 8.12499 21.125C5.88133 21.125 4.06249 19.3062 4.06249 17.0625Z" fill="#ABABC2"/>
<path fill-rule="evenodd" clip-rule="evenodd" d="M8.12499 21.125C7.3051 21.125 6.49647 21.3159 5.76314 21.6826C5.02981 22.0492 4.39192 22.5816 3.89999 23.2375C3.63075 23.5965 3.12147 23.6692 2.76249 23.4C2.4035 23.1308 2.33075 22.6215 2.59999 22.2625C3.24328 21.4048 4.07745 20.7086 5.03642 20.2291C5.99539 19.7496 7.05283 19.5 8.12499 19.5C9.19715 19.5 10.2546 19.7496 11.2136 20.2291C12.1725 20.7086 13.0067 21.4048 13.65 22.2625C13.9192 22.6215 13.8465 23.1308 13.4875 23.4C13.1285 23.6692 12.6192 23.5965 12.35 23.2375C11.8581 22.5816 11.2202 22.0492 10.4868 21.6826C9.7535 21.3159 8.94488 21.125 8.12499 21.125Z" fill="#ABABC2"/>
<path fill-rule="evenodd" clip-rule="evenodd" d="M8.12499 4.0625C6.77879 4.0625 5.68749 5.15381 5.68749 6.5C5.68749 7.84619 6.77879 8.9375 8.12499 8.9375C9.47118 8.9375 10.5625 7.84619 10.5625 6.5C10.5625 5.15381 9.47118 4.0625 8.12499 4.0625ZM4.06249 6.5C4.06249 4.25634 5.88133 2.4375 8.12499 2.4375C10.3686 2.4375 12.1875 4.25634 12.1875 6.5C12.1875 8.74366 10.3686 10.5625 8.12499 10.5625C5.88133 10.5625 4.06249 8.74366 4.06249 6.5Z" fill="#ABABC2"/>
<path fill-rule="evenodd" clip-rule="evenodd" d="M8.12499 10.5625C7.3051 10.5625 6.49647 10.7534 5.76314 11.1201C5.02981 11.4867 4.39192 12.0191 3.89999 12.675C3.63075 13.034 3.12147 13.1067 2.76249 12.8375C2.4035 12.5683 2.33075 12.059 2.59999 11.7C3.24328 10.8423 4.07745 10.1461 5.03642 9.66661C5.99539 9.18713 7.05283 8.9375 8.12499 8.9375C9.19715 8.9375 10.2546 9.18713 11.2136 9.66661C12.1725 10.1461 13.0067 10.8423 13.65 11.7C13.9192 12.059 13.8465 12.5683 13.4875 12.8375C13.1285 13.1067 12.6192 13.034 12.35 12.675C11.8581 12.0191 11.2202 11.4867 10.4868 11.1201C9.7535 10.7534 8.94488 10.5625 8.12499 10.5625Z" fill="#ABABC2"/>
<path fill-rule="evenodd" clip-rule="evenodd" d="M17.875 14.625C16.5288 14.625 15.4375 15.7163 15.4375 17.0625C15.4375 18.4087 16.5288 19.5 17.875 19.5C19.2212 19.5 20.3125 18.4087 20.3125 17.0625C20.3125 15.7163 19.2212 14.625 17.875 14.625ZM13.8125 17.0625C13.8125 14.8188 15.6313 13 17.875 13C20.1186 13 21.9375 14.8188 21.9375 17.0625C21.9375 19.3062 20.1186 21.125 17.875 21.125C15.6313 21.125 13.8125 19.3062 13.8125 17.0625Z" fill="#ABABC2"/>
<path fill-rule="evenodd" clip-rule="evenodd" d="M17.875 21.125C17.0551 21.125 16.2465 21.3159 15.5131 21.6826C14.7798 22.0492 14.1419 22.5816 13.65 23.2375C13.3807 23.5965 12.8715 23.6692 12.5125 23.4C12.1535 23.1308 12.0807 22.6215 12.35 22.2625C12.9933 21.4048 13.8274 20.7086 14.7864 20.2291C15.7454 19.7496 16.8028 19.5 17.875 19.5C18.9471 19.5 20.0046 19.7496 20.9636 20.2291C21.9225 20.7086 22.7567 21.4048 23.4 22.2625C23.6692 22.6215 23.5965 23.1308 23.2375 23.4C22.8785 23.6692 22.3692 23.5965 22.1 23.2375C21.6081 22.5816 20.9702 22.0492 20.2368 21.6826C19.5035 21.3159 18.6949 21.125 17.875 21.125Z" fill="#ABABC2"/>
<path fill-rule="evenodd" clip-rule="evenodd" d="M17.875 4.0625C16.5288 4.0625 15.4375 5.15381 15.4375 6.5C15.4375 7.84619 16.5288 8.9375 17.875 8.9375C19.2212 8.9375 20.3125 7.84619 20.3125 6.5C20.3125 5.15381 19.2212 4.0625 17.875 4.0625ZM13.8125 6.5C13.8125 4.25634 15.6313 2.4375 17.875 2.4375C20.1186 2.4375 21.9375 4.25634 21.9375 6.5C21.9375 8.74366 20.1186 10.5625 17.875 10.5625C15.6313 10.5625 13.8125 8.74366 13.8125 6.5Z" fill="#ABABC2"/>
<path fill-rule="evenodd" clip-rule="evenodd" d="M17.875 10.5625C17.0551 10.5625 16.2465 10.7534 15.5131 11.1201C14.7798 11.4867 14.1419 12.0191 13.65 12.675C13.3807 13.034 12.8715 13.1067 12.5125 12.8375C12.1535 12.5683 12.0807 12.059 12.35 11.7C12.9933 10.8423 13.8274 10.1461 14.7864 9.66661C15.7454 9.18713 16.8028 8.9375 17.875 8.9375C18.9471 8.9375 20.0046 9.18713 20.9636 9.66661C21.9225 10.1461 22.7567 10.8423 23.4 11.7C23.6692 12.059 23.5965 12.5683 23.2375 12.8375C22.8785 13.1067 22.3692 13.034 22.1 12.675C21.6081 12.0191 20.9702 11.4867 20.2368 11.1201C19.5035 10.7534 18.6949 10.5625 17.875 10.5625Z" fill="#ABABC2"/>
</svg>
