<svg width="20" height="20" viewBox="0 0 20 20" fill="none" xmlns="http://www.w3.org/2000/svg">
<path fill-rule="evenodd" clip-rule="evenodd" d="M3.70018 8.09213C3.88057 4.66703 6.54485 1.84886 10.0442 1.87506C13.5223 1.9011 16.3007 4.75488 16.3007 8.19531V8.75C16.3007 11.4571 16.8738 12.9686 17.3296 13.7466L17.3299 13.7472C17.441 13.9372 17.4998 14.1534 17.5 14.3739C17.5002 14.5943 17.4417 14.8106 17.3311 15.0008C17.2204 15.191 17.0616 15.3482 16.8714 15.4574C16.6813 15.5666 16.4659 15.6242 16.247 15.625L16.2448 15.625H13.125C13.125 16.4538 12.7958 17.2486 12.2097 17.8347C11.6237 18.4207 10.8288 18.75 10 18.75C9.1712 18.75 8.37634 18.4207 7.79029 17.8347C7.20424 17.2486 6.875 16.4538 6.875 15.625H3.75516L3.75298 15.625C3.53405 15.6242 3.31875 15.5666 3.12857 15.4574C2.93836 15.3482 2.7796 15.191 2.66895 15.0008C2.55826 14.8106 2.4998 14.5943 2.5 14.3738C2.5002 14.1534 2.55904 13.9373 2.67007 13.7472L2.67044 13.7466C3.12562 12.9695 3.69793 11.4607 3.69931 8.75977L3.69906 8.75182L3.69771 8.70246C3.69665 8.66092 3.69539 8.60296 3.69455 8.53688C3.69291 8.40856 3.69263 8.2354 3.70018 8.09213ZM4.94896 8.72899C4.94919 8.73599 4.94931 8.743 4.94931 8.75C4.94931 11.6322 4.33859 13.3698 3.7517 14.3738C3.75308 14.3744 3.75491 14.3749 3.75706 14.375H16.2429C16.2451 14.3749 16.2469 14.3744 16.2483 14.3738C15.6614 13.3698 15.0507 11.6322 15.0507 8.75V8.19531C15.0507 5.43267 12.8174 3.14586 10.0348 3.12502C7.27355 3.10435 5.09747 5.32844 4.94845 8.15788C4.94316 8.25834 4.94287 8.39768 4.94445 8.52093C4.94521 8.58063 4.94635 8.63321 4.94731 8.67077L4.94851 8.71446L4.94885 8.72575L4.94896 8.72899C4.94896 8.729 4.94896 8.72899 4.94896 8.72899ZM11.875 15.625H8.125C8.125 16.1222 8.32254 16.5991 8.67417 16.9508C9.02581 17.3024 9.50272 17.5 10 17.5C10.4973 17.5 10.9742 17.3024 11.3258 16.9508C11.6775 16.5991 11.875 16.1222 11.875 15.625Z" fill="#585874"/>
</svg>
