<svg width="14" height="14" viewBox="0 0 14 14" fill="none" xmlns="http://www.w3.org/2000/svg">
<path fill-rule="evenodd" clip-rule="evenodd" d="M7 2.1875C4.34213 2.1875 2.1875 4.34213 2.1875 7C2.1875 9.65787 4.34213 11.8125 7 11.8125C9.65787 11.8125 11.8125 9.65787 11.8125 7C11.8125 4.34213 9.65787 2.1875 7 2.1875ZM1.3125 7C1.3125 3.85888 3.85888 1.3125 7 1.3125C10.1411 1.3125 12.6875 3.85888 12.6875 7C12.6875 10.1411 10.1411 12.6875 7 12.6875C3.85888 12.6875 1.3125 10.1411 1.3125 7ZM7 3.5C7.24162 3.5 7.4375 3.69588 7.4375 3.9375V6.5625H10.0625C10.3041 6.5625 10.5 6.75838 10.5 7C10.5 7.24162 10.3041 7.4375 10.0625 7.4375H7C6.75838 7.4375 6.5625 7.24162 6.5625 7V3.9375C6.5625 3.69588 6.75838 3.5 7 3.5Z" fill="#585874"/>
</svg>
