<svg width="16" height="15" viewBox="0 0 16 15" fill="none" xmlns="http://www.w3.org/2000/svg">
<path fill-rule="evenodd" clip-rule="evenodd" d="M1.96015 0.8125H14.0398C14.2581 0.812569 14.4717 0.876102 14.6545 0.995358C14.8372 1.11461 14.9813 1.28444 15.0693 1.48416C15.1572 1.68388 15.1852 1.90486 15.1497 2.12018C15.1144 2.33509 15.0174 2.5351 14.8706 2.69594L14.8697 2.69688L10.25 7.78067V11.758C10.2512 11.9451 10.2054 12.1296 10.1169 12.2944C10.0284 12.459 9.90017 12.5988 9.74383 12.701L7.49605 14.1972L7.49377 14.1987C7.32497 14.3098 7.12934 14.3735 6.92743 14.3829C6.72552 14.3923 6.52481 14.3472 6.34638 14.2522C6.16796 14.1573 6.01841 14.016 5.91347 13.8432C5.80853 13.6705 5.75207 13.4727 5.75002 13.2705L5.74996 13.2648L5.74999 7.7807L5.7485 7.77911L1.13028 2.69688L1.12953 2.69605C0.982654 2.53519 0.885633 2.33513 0.850259 2.12018C0.814824 1.90486 0.842777 1.68388 0.930712 1.48416C1.01865 1.28445 1.16277 1.11461 1.34552 0.995358C1.52814 0.876181 1.74147 0.812653 1.95954 0.8125M14.0397 1.9375H1.96033L1.9616 1.93889L6.57897 7.02011C6.77103 7.22739 6.8769 7.50008 6.87499 7.78268V13.2591L9.12498 11.7615L9.12497 11.7602L9.12499 7.78268C9.12309 7.50008 9.22896 7.22739 9.42101 7.02011L14.0384 1.9389L14.0397 1.9375Z" fill="#ABABC2"/>
</svg>
