<svg width="18" height="18" viewBox="0 0 18 18" fill="none" xmlns="http://www.w3.org/2000/svg">
<path fill-rule="evenodd" clip-rule="evenodd" d="M9 1.125C9.31066 1.125 9.5625 1.37684 9.5625 1.6875V2.8125H15.1875C15.8088 2.8125 16.3125 3.31618 16.3125 3.9375V12.375C16.3125 12.9963 15.8088 13.5 15.1875 13.5H12.4204L13.9392 15.3986C14.1333 15.6412 14.094 15.9952 13.8514 16.1892C13.6088 16.3833 13.2548 16.344 13.0608 16.1014L10.9796 13.5H7.02035L4.93924 16.1014C4.74517 16.344 4.39119 16.3833 4.14861 16.1892C3.90602 15.9952 3.86669 15.6412 4.06076 15.3986L5.57965 13.5H2.8125C2.19118 13.5 1.6875 12.9963 1.6875 12.375V3.9375C1.6875 3.31618 2.19118 2.8125 2.8125 2.8125H8.4375V1.6875C8.4375 1.37684 8.68934 1.125 9 1.125ZM2.8125 3.9375V12.375H6.74548C6.74873 12.375 6.75198 12.375 6.75523 12.375H11.2448C11.248 12.375 11.2513 12.375 11.2545 12.375H15.1875V3.9375H2.8125ZM11.25 5.625C11.5607 5.625 11.8125 5.87684 11.8125 6.1875V10.125C11.8125 10.4357 11.5607 10.6875 11.25 10.6875C10.9393 10.6875 10.6875 10.4357 10.6875 10.125V6.1875C10.6875 5.87684 10.9393 5.625 11.25 5.625ZM9 6.75C9.31066 6.75 9.5625 7.00184 9.5625 7.3125V10.125C9.5625 10.4357 9.31066 10.6875 9 10.6875C8.68934 10.6875 8.4375 10.4357 8.4375 10.125V7.3125C8.4375 7.00184 8.68934 6.75 9 6.75ZM6.75 7.875C7.06066 7.875 7.3125 8.12684 7.3125 8.4375V10.125C7.3125 10.4357 7.06066 10.6875 6.75 10.6875C6.43934 10.6875 6.1875 10.4357 6.1875 10.125V8.4375C6.1875 8.12684 6.43934 7.875 6.75 7.875Z" fill="#585874"/>
</svg>
