<svg width="19" height="18" viewBox="0 0 19 18" fill="none" xmlns="http://www.w3.org/2000/svg">
<path fill-rule="evenodd" clip-rule="evenodd" d="M9.89678 3.03353C10.6354 2.29494 11.6371 1.88 12.6816 1.88C13.7262 1.88 14.7279 2.29494 15.4665 3.03353C16.2051 3.77212 16.62 4.77386 16.62 5.81839C16.62 6.86291 16.2051 7.86465 15.4665 8.60324L13.4767 10.5931C13.257 10.8128 12.9008 10.8128 12.6812 10.5931C12.4615 10.3734 12.4615 10.0173 12.6812 9.79759L14.671 7.80775C15.1986 7.28014 15.495 6.56454 15.495 5.81839C15.495 5.07223 15.1986 4.35664 14.671 3.82903C14.1434 3.30141 13.4278 3.005 12.6816 3.005C11.9355 3.005 11.2199 3.30141 10.6923 3.82903L8.70243 5.81887C8.48276 6.03854 8.12661 6.03854 7.90694 5.81887C7.68727 5.5992 7.68727 5.24304 7.90694 5.02337L9.89678 3.03353ZM12.281 6.21136C12.5009 6.43087 12.5011 6.78703 12.2816 7.00686L7.51444 11.7811C7.29494 12.0009 6.93878 12.0012 6.71895 11.7817C6.49912 11.5622 6.49886 11.206 6.71836 10.9862L11.4855 6.21195C11.7051 5.99212 12.0612 5.99185 12.281 6.21136ZM6.31884 7.40697C6.53851 7.62664 6.53851 7.98279 6.31884 8.20246L4.32899 10.1923C3.80138 10.7199 3.50497 11.4355 3.50497 12.1817C3.50497 12.9278 3.80138 13.6434 4.32899 14.171C4.85661 14.6986 5.5722 14.9951 6.31836 14.9951C6.68781 14.9951 7.05366 14.9223 7.39499 14.7809C7.73633 14.6395 8.04647 14.4323 8.30772 14.171L10.2976 12.1812C10.5172 11.9615 10.8734 11.9615 11.0931 12.1812C11.3127 12.4009 11.3127 12.757 11.0931 12.9767L9.10321 14.9665C8.7375 15.3322 8.30334 15.6223 7.82551 15.8203C7.34768 16.0182 6.83555 16.1201 6.31836 16.1201C5.27383 16.1201 4.27209 15.7051 3.5335 14.9665C2.79491 14.2279 2.37997 13.2262 2.37997 12.1817C2.37997 11.1371 2.79491 10.1354 3.5335 9.39681L5.52334 7.40697C5.74301 7.1873 6.09917 7.1873 6.31884 7.40697Z" fill="#585874"/>
</svg>
