<svg width="18" height="18" viewBox="0 0 18 18" fill="none" xmlns="http://www.w3.org/2000/svg">
<path fill-rule="evenodd" clip-rule="evenodd" d="M13.1023 1.85225C13.3219 1.63258 13.6781 1.63258 13.8977 1.85225L16.1477 4.10225C16.3674 4.32192 16.3674 4.67808 16.1477 4.89775L9.39775 11.6477C9.29226 11.7532 9.14918 11.8125 9 11.8125H6.75C6.43934 11.8125 6.1875 11.5607 6.1875 11.25V9C6.1875 8.85082 6.24676 8.70774 6.35225 8.60225L13.1023 1.85225ZM11.8125 4.733L7.3125 9.233V10.6875H8.767L13.267 6.1875L11.8125 4.733ZM14.0625 5.392L12.608 3.9375L13.5 3.0455L14.9545 4.5L14.0625 5.392ZM2.5795 2.57951C2.79048 2.36853 3.07663 2.25 3.375 2.25H9.5625C9.87316 2.25 10.125 2.50184 10.125 2.8125C10.125 3.12316 9.87316 3.375 9.5625 3.375L3.375 3.375L3.375 14.625H14.625V8.4375C14.625 8.12684 14.8768 7.875 15.1875 7.875C15.4982 7.875 15.75 8.12684 15.75 8.4375V14.625C15.75 14.9234 15.6315 15.2095 15.4205 15.4205C15.2095 15.6315 14.9234 15.75 14.625 15.75H3.375C3.07663 15.75 2.79048 15.6315 2.5795 15.4205C2.36853 15.2095 2.25 14.9234 2.25 14.625V3.375C2.25 3.07663 2.36853 2.79048 2.5795 2.57951Z" fill="#585874"/>
</svg>
