<svg width="20" height="20" viewBox="0 0 20 20" fill="none" xmlns="http://www.w3.org/2000/svg">
<path fill-rule="evenodd" clip-rule="evenodd" d="M16.2578 2.20383C16.4706 2.14226 16.6961 2.13873 16.9108 2.19366C17.1267 2.24888 17.3238 2.36116 17.4813 2.51874C17.6389 2.67631 17.7512 2.87337 17.8064 3.08926C17.8613 3.30398 17.8578 3.52947 17.7962 3.74234L13.6967 18.2977C13.6964 18.2986 13.6962 18.2994 13.6959 18.3003C13.6278 18.5472 13.4856 18.7672 13.2884 18.9306C13.0905 19.0946 12.8468 19.1935 12.5906 19.214C12.3344 19.2345 12.0781 19.1756 11.8566 19.0451C11.6367 18.9157 11.4618 18.722 11.3552 18.4903L8.19314 11.8069L1.50977 8.64482C1.27804 8.53825 1.08441 8.36332 0.954936 8.14346C0.82451 7.92198 0.765529 7.66569 0.786025 7.40948C0.806522 7.15327 0.9055 6.90961 1.06948 6.71168C1.23286 6.51448 1.45285 6.37224 1.69968 6.30416C1.70058 6.30391 1.70149 6.30366 1.70239 6.30341L16.2578 2.20383ZM16.5916 3.40844L2.03207 7.50917L2.04076 7.5132L8.53185 10.5843L11.7534 7.36278C11.9975 7.1187 12.3932 7.1187 12.6373 7.36278C12.8814 7.60686 12.8814 8.00259 12.6373 8.24667L9.41573 11.4682L12.4869 17.9593L12.4909 17.968L12.4922 17.9634L16.5916 3.40844Z" fill="#585874"/>
</svg>
