<svg width="18" height="18" viewBox="0 0 18 18" fill="none" xmlns="http://www.w3.org/2000/svg">
<path fill-rule="evenodd" clip-rule="evenodd" d="M5.625 1.6875C5.625 1.37684 5.87684 1.125 6.1875 1.125H11.8125C12.1232 1.125 12.375 1.37684 12.375 1.6875C12.375 1.99816 12.1232 2.25 11.8125 2.25H6.1875C5.87684 2.25 5.625 1.99816 5.625 1.6875ZM2.25 3.9375C2.25 3.62684 2.50184 3.375 2.8125 3.375H15.1875C15.4982 3.375 15.75 3.62684 15.75 3.9375C15.75 4.24816 15.4982 4.5 15.1875 4.5H14.625V14.625C14.625 14.9234 14.5065 15.2095 14.2955 15.4205C14.0845 15.6315 13.7984 15.75 13.5 15.75H4.5C4.20163 15.75 3.91548 15.6315 3.7045 15.4205C3.49353 15.2095 3.375 14.9234 3.375 14.625V4.5H2.8125C2.50184 4.5 2.25 4.24816 2.25 3.9375ZM4.5 4.5V14.625H13.5V4.5H4.5Z" fill="#585874"/>
</svg>
