<svg width="26" height="26" viewBox="0 0 26 26" fill="none" xmlns="http://www.w3.org/2000/svg">
<path fill-rule="evenodd" clip-rule="evenodd" d="M13 8.93752C11.2051 8.93752 9.75 10.3926 9.75 12.1875C9.75 13.9825 11.2051 15.4375 13 15.4375C14.7949 15.4375 16.25 13.9825 16.25 12.1875C16.25 10.3926 14.7949 8.93752 13 8.93752ZM16.0163 16.0176C17.1483 15.1249 17.875 13.7411 17.875 12.1875C17.875 9.49514 15.6924 7.31252 13 7.31252C10.3076 7.31252 8.125 9.49514 8.125 12.1875C8.125 13.7411 8.85171 15.1249 9.98375 16.0176C9.55728 16.1881 9.14432 16.395 8.74966 16.6373C7.47089 17.4222 6.43445 18.5459 5.75521 19.8838C5.55207 20.2839 5.71176 20.7729 6.11187 20.9761C6.51199 21.1792 7.00103 21.0195 7.20417 20.6194C7.74756 19.5491 8.57671 18.6501 9.59973 18.0222C10.6225 17.3944 11.7994 17.0625 13 17.0625C14.2006 17.0625 15.3775 17.3944 16.4003 18.0222C17.4233 18.6501 18.2524 19.5491 18.7958 20.6194C18.999 21.0195 19.488 21.1792 19.8881 20.9761C20.2882 20.7729 20.4479 20.2839 20.2448 19.8838C19.5656 18.5459 18.5291 17.4222 17.2503 16.6373C16.8557 16.395 16.4427 16.1881 16.0163 16.0176Z" fill="#ABABC2"/>
<path fill-rule="evenodd" clip-rule="evenodd" d="M2.67548 9.988C2.99278 9.6707 3.50722 9.6707 3.82452 9.988L6.26202 12.4255C6.57933 12.7428 6.57933 13.2572 6.26202 13.5745C5.94472 13.8918 5.43028 13.8918 5.11298 13.5745L3.25 11.7116L1.38702 13.5745C1.06972 13.8918 0.555277 13.8918 0.237976 13.5745C-0.0793253 13.2572 -0.0793253 12.7428 0.237976 12.4255L2.67548 9.988Z" fill="#ABABC2"/>
<path fill-rule="evenodd" clip-rule="evenodd" d="M19.738 12.4255C20.0553 12.1082 20.5697 12.1082 20.887 12.4255L22.75 14.2885L24.613 12.4255C24.9303 12.1082 25.4447 12.1082 25.762 12.4255C26.0793 12.7428 26.0793 13.2572 25.762 13.5745L23.3245 16.012C23.0072 16.3294 22.4928 16.3294 22.1755 16.012L19.738 13.5745C19.4207 13.2572 19.4207 12.7428 19.738 12.4255Z" fill="#ABABC2"/>
<path fill-rule="evenodd" clip-rule="evenodd" d="M9.32011 3.08864C11.4592 2.29357 13.7983 2.21269 15.9872 2.85809C18.1761 3.5035 20.0972 4.84047 21.4627 6.66889C22.8283 8.49731 23.565 10.7188 23.5625 13.0009L22.75 13H23.5625V13.0009V15.4375C23.5625 15.8863 23.1987 16.25 22.75 16.25C22.3013 16.25 21.9375 15.8863 21.9375 15.4375V12.9991C21.9396 11.0681 21.3163 9.1884 20.1608 7.64127C19.0053 6.09415 17.3798 4.96286 15.5276 4.41675C13.6755 3.87064 11.6963 3.93908 9.88625 4.61183C8.07623 5.28457 6.53277 6.52544 5.48691 8.14868C5.24387 8.5259 4.74106 8.63467 4.36384 8.39163C3.98663 8.14859 3.87786 7.64577 4.1209 7.26856C5.35691 5.35017 7.181 3.8837 9.32011 3.08864Z" fill="#ABABC2"/>
<path fill-rule="evenodd" clip-rule="evenodd" d="M3.25 9.75002C3.69873 9.75002 4.0625 10.1138 4.0625 10.5625L4.0625 13.0009C4.06039 14.9319 4.68373 16.8117 5.83922 18.3588C6.99471 19.9059 8.62019 21.0372 10.4724 21.5833C12.3245 22.1294 14.3037 22.061 16.1138 21.3882C17.9238 20.7155 19.4672 19.4746 20.5131 17.8514C20.7561 17.4742 21.2589 17.3654 21.6362 17.6084C22.0134 17.8515 22.1221 18.3543 21.8791 18.7315C20.6431 20.6499 18.819 22.1164 16.6799 22.9114C14.5408 23.7065 12.2017 23.7874 10.0128 23.142C7.82386 22.4966 5.90284 21.1596 4.53726 19.3312C3.17178 17.5029 2.43511 15.2815 2.4375 12.9996V10.5625C2.4375 10.1138 2.80127 9.75002 3.25 9.75002Z" fill="#ABABC2"/>
</svg>
